<!DOCTYPE svg PUBLIC "-//W3C//DTD SVG 1.1//EN" "http://www.w3.org/Graphics/SVG/1.1/DTD/svg11.dtd">
<!-- Uploaded to: SVG Repo, www.svgrepo.com, Transformed by: SVG Repo Mixer Tools -->
<svg width="800px" height="800px" viewBox="-12.8 -12.8 153.60 153.60" xmlns="http://www.w3.org/2000/svg" xmlns:xlink="http://www.w3.org/1999/xlink" aria-hidden="true" role="img" class="iconify iconify--noto" preserveAspectRatio="xMidYMid meet" fill="#ffffff" stroke="#ffffff" stroke-width="0.00128" transform="rotate(0)">
<g id="SVGRepo_bgCarrier" stroke-width="0" transform="translate(0,0), scale(1)">
<path transform="translate(-12.8, -12.8), scale(4.8)" d="M16,31.17937274596521C18.82564831983132,31.130277470602444,21.433111191555366,29.639403029980723,23.598292145407676,27.823173360995078C25.597964080982923,26.145778457272193,26.685127959926103,23.748381328585864,27.716820832683215,21.350892782364017C28.727510131534437,19.002213168721614,29.52871273759013,16.6126275497352,29.522732890877464,14.055724534799927C29.51606350195528,11.203982431313127,29.4578225270161,8.108937105154935,27.68063584190937,5.878671427746239C25.884166305881863,3.6242068966483916,22.84329998989717,2.922822415614222,20.058361457877083,2.17849017210804C17.331478264852958,1.4496744149535434,14.454220750878749,0.7250175791853444,11.780286387188102,1.628975197079253C9.147484144380226,2.519027576865226,7.545996006825639,4.998788598417849,5.664732749979862,7.044439948706769C3.722874975958664,9.155980671697218,1.070762523061068,10.956001568353607,0.6003252281294031,13.785861033223014C0.12786623959381965,16.627881754952263,1.8486432506300985,19.30147443596934,3.2045301706687646,21.843495273542185C4.488253916089753,24.250224376330603,6.026589920234807,26.482457397874136,8.230104339013863,28.090193643344527C10.528204608861286,29.766941963242616,13.155653427090197,31.22879290106522,16,31.17937274596521" fill="#7ed0ec" strokewidth="0"/>
</g>
<g id="SVGRepo_tracerCarrier" stroke-linecap="round" stroke-linejoin="round" stroke="#CCCCCC" stroke-width="0.512"/>
<g id="SVGRepo_iconCarrier">
<path d="M100.08 16.44H75.44c-1.24 0-2.24 1-2.24 2.24v45.53c.31 10.84-.18 23.69-1.52 25.89c-.1.13-.2.28-.27.43c-1.6 3.33-6.9 6.78-12.99 6.78c-6.33 0-13.78-5.46-15.94-11.68a2.24 2.24 0 0 0-2.79-1.41l-20.47 6.41c-1.06.33-1.7 1.38-1.53 2.48c.01.07.03.14.04.2c2.32 17.58 18.94 29.38 41.46 29.38c22.53 0 39.16-11.81 41.48-29.4c.02-.1.04-.19.05-.29c1.56-15.02 1.58-28.71 1.58-28.85V18.68c.02-1.23-.98-2.24-2.22-2.24z" fill="#fff"/>
</g>
</svg>