<!DOCTYPE svg PUBLIC "-//W3C//DTD SVG 1.1//EN" "http://www.w3.org/Graphics/SVG/1.1/DTD/svg11.dtd">
<!-- Uploaded to: SVG Repo, www.svgrepo.com, Transformed by: SVG Repo Mixer Tools -->
<svg width="256px" height="256px" viewBox="-28.16 -28.16 184.32 184.32" xmlns="http://www.w3.org/2000/svg" xmlns:xlink="http://www.w3.org/1999/xlink" aria-hidden="true" role="img" class="iconify iconify--noto" preserveAspectRatio="xMidYMid meet" fill="#ffffff" stroke="#ffffff" stroke-width="0.00128" transform="rotate(0)">
<g id="SVGRepo_bgCarrier" stroke-width="0" transform="translate(0,0), scale(1)">
<path transform="translate(-28.16, -28.16), scale(5.76)" d="M16,27.899810639812664C19.653178269512395,28.200271939427882,23.7666077039309,28.944174551132452,26.482649197577906,26.48264919757791C29.258726235751258,23.966714139564974,29.08535814286214,19.74626747389099,29.13022407735972,16C29.175872191586276,12.188421182208183,29.459153561804573,7.931346432524402,26.73677663944237,5.263223360557632C24.027752409701932,2.608186877359809,19.73448503702511,2.46687681347305,16,3.1314462324713954C12.853889704163725,3.6913115608043654,10.654377494899293,6.140543215315992,8.50725386052977,8.507253860529769C6.50937732032506,10.709453864216934,4.577986029123845,13.037332117541453,4.325410210034427,15.999999999999998C4.051206858788121,19.216354855063656,4.849985899222119,22.58510992735018,7.110632307346762,24.889367692653234C9.388217383842377,27.210890899374917,12.758735220487361,27.633227802567387,16,27.899810639812664" fill="#141414" strokewidth="0"/>
</g>
<g id="SVGRepo_tracerCarrier" stroke-linecap="round" stroke-linejoin="round" stroke="#CCCCCC" stroke-width="1.536">
<path d="M100.08 16.44H75.44c-1.24 0-2.24 1-2.24 2.24v45.53c.31 10.84-.18 23.69-1.52 25.89c-.1.13-.2.28-.27.43c-1.6 3.33-6.9 6.78-12.99 6.78c-6.33 0-13.78-5.46-15.94-11.68a2.24 2.24 0 0 0-2.79-1.41l-20.47 6.41c-1.06.33-1.7 1.38-1.53 2.48c.01.07.03.14.04.2c2.32 17.58 18.94 29.38 41.46 29.38c22.53 0 39.16-11.81 41.48-29.4c.02-.1.04-.19.05-.29c1.56-15.02 1.58-28.71 1.58-28.85V18.68c.02-1.23-.98-2.24-2.22-2.24z" fill="#fff"/>
</g>
<g id="SVGRepo_iconCarrier">
<path d="M100.08 16.44H75.44c-1.24 0-2.24 1-2.24 2.24v45.53c.31 10.84-.18 23.69-1.52 25.89c-.1.13-.2.28-.27.43c-1.6 3.33-6.9 6.78-12.99 6.78c-6.33 0-13.78-5.46-15.94-11.68a2.24 2.24 0 0 0-2.79-1.41l-20.47 6.41c-1.06.33-1.7 1.38-1.53 2.48c.01.07.03.14.04.2c2.32 17.58 18.94 29.38 41.46 29.38c22.53 0 39.16-11.81 41.48-29.4c.02-.1.04-.19.05-.29c1.56-15.02 1.58-28.71 1.58-28.85V18.68c.02-1.23-.98-2.24-2.22-2.24z" fill="#fff"/>
</g>
</svg>